<?xml version="1.0" standalone="no"?><!DOCTYPE svg PUBLIC "-//W3C//DTD SVG 1.1//EN" "http://www.w3.org/Graphics/SVG/1.1/DTD/svg11.dtd"><svg t="1710942614776" class="icon" viewBox="0 0 1152 1024" version="1.1" xmlns="http://www.w3.org/2000/svg" p-id="7292" xmlns:xlink="http://www.w3.org/1999/xlink" width="225" height="200"><path d="M225.984 36.032H926.08c25.408 0 46.016 21.888 46.016 48.832l114.56 622.272c0 27.008-20.544 48.896-45.952 48.896H122.752c-25.408 0-46.016-21.952-46.016-48.896l103.232-622.272c0-27.008 20.608-48.896 46.08-48.896z" fill="#98C5EA" p-id="7293"></path><path d="M880.832 0c84.48 0 149.76 63.552 153.6 145.792L1140.48 798.72c7.68 18.688 11.52 37.376 11.52 59.776v7.488c-3.84 78.528-72.96 142.08-153.6 142.08H153.6c-80.64 0-149.76-63.552-153.6-142.08v-7.488c0-22.4 3.84-41.088 11.52-59.776l106.112-652.8C121.472 63.488 186.752 0 271.232 0h609.6zM998.4 783.744H153.6c-30.72 0-53.76 18.624-69.12 41.088l-7.68 37.376c0 37.376 34.56 71.04 76.8 71.04h844.8c42.24 0 76.8-33.664 76.8-71.04l-7.68-37.376c-15.36-26.176-38.4-41.152-69.12-41.152z m-57.6 42.368a39.232 39.232 0 0 1 38.4 0 37.12 37.12 0 0 1 19.2 32.384 37.12 37.12 0 0 1-19.2 32.32 39.232 39.232 0 0 1-38.4 0 37.248 37.248 0 0 1-19.2-32.384c0-13.312 7.296-25.664 19.2-32.384z m-59.968-751.36H271.168c-42.24 0-76.8 33.664-76.8 74.816L111.36 716.416c11.52-3.776 26.88-7.488 42.24-7.488h844.8c15.36 0 30.72 3.712 42.24 7.488l-83.072-566.848c0-41.152-34.56-74.816-76.8-74.816zM432 540.032h288a35.968 35.968 0 1 1 0 71.936h-288a36.032 36.032 0 0 1 0-71.936z" fill="#4581BA" p-id="7294"></path></svg>