<?xml version="1.0" standalone="no"?><!DOCTYPE svg PUBLIC "-//W3C//DTD SVG 1.1//EN" "http://www.w3.org/Graphics/SVG/1.1/DTD/svg11.dtd"><svg t="1717160296998" class="icon" viewBox="0 0 1024 1024" version="1.1" xmlns="http://www.w3.org/2000/svg" p-id="6039" xmlns:xlink="http://www.w3.org/1999/xlink" width="200" height="200"><path d="M405.312 736a32 32 0 0 1-32-32V448a32 32 0 0 1 64 0v256a32 32 0 0 1-32 32zM650.688 448a32 32 0 0 0-64 0v256a32 32 0 1 0 64 0V448z" fill="#333333" p-id="6040"></path><path d="M514.816 53.312h-2.752c-21.504 0-39.808 0-55.04 1.408a116.672 116.672 0 0 0-45.568 12.352c-5.76 3.008-11.2 6.528-16.32 10.496a116.608 116.608 0 0 0-30.144 36.352c-7.552 13.248-15.168 29.888-24.128 49.536l-17.856 39.232H128a32 32 0 0 0 0 64h32V832A160 160 0 0 0 320 992h384a160 160 0 0 0 160-160V266.688h32a32 32 0 0 0 0-64h-190.912l-20.992-43.264c-9.152-18.944-16.896-35.008-24.576-47.744a116.608 116.608 0 0 0-30.208-35.072 117.376 117.376 0 0 0-16.064-10.112 116.608 116.608 0 0 0-44.736-11.84c-14.784-1.28-32.64-1.28-53.696-1.28zM800 266.688V832a96 96 0 0 1-96 96H320A96 96 0 0 1 224 832V266.688h576z m-166.016-64h-240.64l5.184-11.456c9.664-21.184 16.064-35.2 22.016-45.568a54.144 54.144 0 0 1 13.568-17.28 53.312 53.312 0 0 1 7.424-4.8 54.144 54.144 0 0 1 21.312-5.12c11.968-1.088 27.328-1.152 50.624-1.152 22.72 0 37.76 0 49.344 1.088 11.072 0.96 16.704 2.752 20.928 4.928 2.56 1.28 4.992 2.88 7.36 4.608 3.776 2.816 7.808 7.168 13.504 16.64 6.016 10.048 12.608 23.488 22.528 43.968l6.848 14.08z" fill="#333333" p-id="6041"></path></svg>