<?xml version="1.0" standalone="no"?><!DOCTYPE svg PUBLIC "-//W3C//DTD SVG 1.1//EN" "http://www.w3.org/Graphics/SVG/1.1/DTD/svg11.dtd"><svg class="icon" width="200px" height="200.00px" viewBox="0 0 1024 1024" version="1.1" xmlns="http://www.w3.org/2000/svg"><path fill="#000000" d="M224.653061 642.612245c-72.097959 0-130.612245-58.514286-130.612245-130.612245s58.514286-130.612245 130.612245-130.612245 130.612245 58.514286 130.612245 130.612245-58.514286 130.612245-130.612245 130.612245z m0-219.428572c-49.110204 0-88.816327 39.706122-88.816326 88.816327s39.706122 88.816327 88.816326 88.816327 88.816327-39.706122 88.816327-88.816327-40.228571-88.816327-88.816327-88.816327zM580.440816 355.265306c-72.097959 0-130.612245-58.514286-130.612245-130.612245s58.514286-130.612245 130.612245-130.612245 130.612245 58.514286 130.612245 130.612245-59.036735 130.612245-130.612245 130.612245z m0-219.428571c-49.110204 0-88.816327 39.706122-88.816326 88.816326s39.706122 88.816327 88.816326 88.816327 88.816327-39.706122 88.816327-88.816327-40.228571-88.816327-88.816327-88.816326zM799.346939 929.959184c-72.097959 0-130.612245-58.514286-130.612245-130.612245s58.514286-130.612245 130.612245-130.612245 130.612245 58.514286 130.612245 130.612245-58.514286 130.612245-130.612245 130.612245z m0-219.428572c-49.110204 0-88.816327 39.706122-88.816327 88.816327s39.706122 88.816327 88.816327 88.816326 88.816327-39.706122 88.816326-88.816326-39.706122-88.816327-88.816326-88.816327z"  /><path fill="#000000" d="M301.453061 454.530612c-6.791837 0-13.583673-3.134694-17.763265-9.404081-6.269388-9.926531-3.657143-22.465306 6.269388-28.734694l201.665306-131.657143c9.926531-6.269388 22.465306-3.657143 28.734694 6.269388s3.657143 22.465306-6.269388 28.734694L312.42449 451.395918c-3.134694 2.089796-7.314286 3.134694-10.971429 3.134694zM699.036735 775.836735c-3.134694 0-6.791837-0.522449-9.404082-2.612245l-376.163265-195.395919c-10.44898-5.22449-14.106122-17.763265-8.881633-28.212244 5.22449-10.44898 17.763265-14.106122 28.212245-8.881633l376.163265 195.395918c10.44898 5.22449 14.106122 17.763265 8.881633 28.212245-3.657143 7.314286-10.971429 11.493878-18.808163 11.493878z"  /></svg>