<?xml version="1.0" standalone="no"?><!DOCTYPE svg PUBLIC "-//W3C//DTD SVG 1.1//EN" "http://www.w3.org/Graphics/SVG/1.1/DTD/svg11.dtd"><svg class="icon" width="200px" height="200.00px" viewBox="0 0 1024 1024" version="1.1" xmlns="http://www.w3.org/2000/svg"><path fill="#000000" d="M501.5 109.38a403.52 403.52 0 0 1 285.32 688.84 403.52 403.52 0 0 1-570.66-570.66 400.94 400.94 0 0 1 285.34-118.18m0-64C243.3 45.38 34 254.7 34 512.88S243.3 980.4 501.5 980.4 969 771.08 969 512.88 759.68 45.38 501.5 45.38z"  /><path fill="#000000" d="M501.5 291.16a7.64 7.64 0 1 1-7.64 7.64 7.64 7.64 0 0 1 7.64-7.64m0-64a71.64 71.64 0 1 0 71.62 71.64 71.64 71.64 0 0 0-71.62-71.64zM501.5 418.18a59.38 59.38 0 0 0-59.38 59.38V768a59.36 59.36 0 0 0 59.38 59.36A59.36 59.36 0 0 0 560.86 768V477.56a59.36 59.36 0 0 0-59.36-59.38z"  /></svg>