<?xml version="1.0" standalone="no"?><!DOCTYPE svg PUBLIC "-//W3C//DTD SVG 1.1//EN" "http://www.w3.org/Graphics/SVG/1.1/DTD/svg11.dtd"><svg class="icon" width="200px" height="200.00px" viewBox="0 0 1024 1024" version="1.1" xmlns="http://www.w3.org/2000/svg"><path fill="#000000" d="M369.792 98.133333a72.533333 72.533333 0 0 1 37.973333 10.752l5.546667 3.754667 151.296 113.493333H853.333333a72.533333 72.533333 0 0 1 72.277334 66.261334L925.866667 298.666667v512a72.533333 72.533333 0 0 1-66.261334 72.277333L853.333333 883.2H170.666667a72.533333 72.533333 0 0 1-72.277334-66.261333L98.133333 810.666667v-119.466667c0-4.693333 3.84-8.533333 8.533334-8.533333h42.666666c4.693333 0 8.533333 3.84 8.533334 8.533333V810.666667a12.8 12.8 0 0 0 9.856 12.458666L170.666667 823.466667h682.666666a12.8 12.8 0 0 0 12.458667-9.856L866.133333 810.666667V298.666667a12.8 12.8 0 0 0-9.856-12.458667L853.333333 285.866667h-308.608l-167.253333-125.44a12.8 12.8 0 0 0-4.949333-2.261334L369.792 157.866667H170.666667a12.8 12.8 0 0 0-12.458667 9.856L157.866667 170.666667v119.466666a8.533333 8.533333 0 0 1-8.533334 8.533334h-42.666666a8.533333 8.533333 0 0 1-8.533334-8.533334V170.666667a72.533333 72.533333 0 0 1 66.261334-72.277334L170.666667 98.133333h199.125333z m-1.28 228.096l164.608 164.650667a29.866667 29.866667 0 0 1 3.157333 38.528l-3.157333 3.712-164.650667 164.650667a8.533333 8.533333 0 0 1-12.032 0l-30.208-30.208a8.533333 8.533333 0 0 1-1.578666-9.813334l1.578666-2.218666L439.893333 541.866667H106.666667a8.533333 8.533333 0 0 1-8.533334-8.533334v-42.666666c0-4.693333 3.84-8.533333 8.533334-8.533334h333.226666L326.229333 368.469333a8.533333 8.533333 0 0 1-1.578666-9.813333l1.578666-2.218667 30.208-30.208a8.533333 8.533333 0 0 1 12.032 0z"  fill-opacity=".65" /></svg>