<?xml version="1.0" standalone="no"?><!DOCTYPE svg PUBLIC "-//W3C//DTD SVG 1.1//EN" "http://www.w3.org/Graphics/SVG/1.1/DTD/svg11.dtd"><svg class="icon" width="200px" height="200.00px" viewBox="0 0 1024 1024" version="1.1" xmlns="http://www.w3.org/2000/svg"><path fill="#000000" d="M938.2 671.3c-13.8 0-25 11.2-25 25v83.1c0 63.3-52.6 114.7-117.3 114.7H230.2c-64.7 0-117.3-51.5-117.3-114.7v-83.1c0-13.8-11.2-25-25-25s-25 11.2-25 25v83.1c0 90.8 75.1 164.7 167.3 164.7h565.7c92.3 0 167.3-73.9 167.3-164.7v-83.1c0-13.8-11.2-25-25-25z"  /><path fill="#000000" d="M494.4 692.4c4.7 4.7 11.1 7.4 17.7 7.4h0.1c6.7 0 13-2.7 17.7-7.4l189.7-192c9.7-9.8 9.6-25.7-0.2-35.4-9.8-9.7-25.7-9.6-35.4 0.2l-145.3 147V98.5c0-13.8-11.2-25-25-25s-25 11.2-25 25v517.4L338.5 465.1c-9.7-9.8-25.6-9.8-35.4-0.1-9.8 9.7-9.8 25.6-0.1 35.4l191.4 192z"  /></svg>