<?xml version="1.0" standalone="no"?><!DOCTYPE svg PUBLIC "-//W3C//DTD SVG 1.1//EN" "http://www.w3.org/Graphics/SVG/1.1/DTD/svg11.dtd"><svg class="icon" width="200px" height="200.00px" viewBox="0 0 1024 1024" version="1.1" xmlns="http://www.w3.org/2000/svg"><path fill="#000000" d="M338.37 958.13A230.41 230.41 0 0 1 108 727.73V254.36a41.05 41.05 0 0 1 82.1 0v473.37c0 81.77 66.53 148.3 148.3 148.3h378.66a41 41 0 1 1 0 82.1z m63.24-147.44c-74.83 0-135.72-60.89-135.72-135.73V201.59c0-74.84 60.89-135.72 135.72-135.72h191.31a35.36 35.36 0 0 1 12.91 4.37l1.87 1.07 2.13-0.3a8.66 8.66 0 0 1 1.25-0.09h0.4a44.12 44.12 0 0 1 10.63 7.39L906 362.2a44.12 44.12 0 0 1 7.2 10.3v3.85l0.33 1a55.74 55.74 0 0 1 2.47 11.12V675c0 74.84-60.88 135.73-135.72 135.73z m0-662.72A53.68 53.68 0 0 0 348 201.59V675a53.69 53.69 0 0 0 53.62 53.63h378.7A53.68 53.68 0 0 0 833.93 675V432H449a41.05 41.05 0 0 1 0-82.1h112.12l-3.07-8.43a135.77 135.77 0 0 1-8.14-45.24V148zM632 296.27a53.68 53.68 0 0 0 53.63 53.62h90.44L632 205.82zM449 621.34a41.05 41.05 0 1 1 0-82.1h236.64a41.05 41.05 0 0 1 0 82.1H449z"  /></svg>