<?xml version="1.0" standalone="no"?><!DOCTYPE svg PUBLIC "-//W3C//DTD SVG 1.1//EN" "http://www.w3.org/Graphics/SVG/1.1/DTD/svg11.dtd"><svg height="600" node-id="1" sillyvg="true" template-height="600" template-width="600" version="1.1" viewBox="0 0 600 600" width="600" xmlns="http://www.w3.org/2000/svg" xmlns:xlink="http://www.w3.org/1999/xlink"><defs node-id="65"><linearGradient gradientUnits="objectBoundingBox" id="linearGradient-1" node-id="5" spreadMethod="pad" x1="1.4458808" x2="0.29515958" y1="0.6691032" y2="0.6732615"><stop offset="0" stop-color="#e0e5ef" stop-opacity="0"></stop><stop offset="1" stop-color="#e0e5ef"></stop></linearGradient><linearGradient gradientUnits="objectBoundingBox" id="linearGradient-2" node-id="8" spreadMethod="pad" x1="1.4458808" x2="0.29515958" y1="0.669094" y2="0.6732521"><stop offset="0" stop-color="#e0e5ef" stop-opacity="0"></stop><stop offset="1" stop-color="#e0e5ef"></stop></linearGradient><linearGradient gradientUnits="objectBoundingBox" id="linearGradient-3" node-id="11" spreadMethod="pad" x1="0.9340618" x2="0.40599936" y1="0.988" y2="1"><stop offset="0" stop-color="#e0e5ef" stop-opacity="0"></stop><stop offset="1" stop-color="#e0e5ef"></stop></linearGradient><linearGradient gradientUnits="objectBoundingBox" id="linearGradient-4" node-id="14" spreadMethod="pad" x1="0.9251822" x2="0.40792233" y1="0.988" y2="1"><stop offset="0" stop-color="#e0e5ef" stop-opacity="0"></stop><stop offset="1" stop-color="#e0e5ef"></stop></linearGradient><linearGradient gradientUnits="objectBoundingBox" id="linearGradient-5" node-id="17" spreadMethod="pad" x1="0.5" x2="-0.31214738" y1="0.4672858" y2="0.31614318"><stop offset="0" stop-color="#e8ebf1" stop-opacity="0.23774004"></stop><stop offset="1" stop-color="#a2abb9"></stop></linearGradient><linearGradient gradientUnits="objectBoundingBox" id="linearGradient-6" node-id="20" spreadMethod="pad" x1="1.6417089" x2="-0.54421765" y1="1.1441041" y2="-0.21639141"><stop offset="0" stop-color="#a2abb9"></stop><stop offset="1" stop-color="#e7eaf0"></stop></linearGradient><linearGradient gradientUnits="objectBoundingBox" id="linearGradient-7" node-id="23" spreadMethod="pad" x1="1.1565343" x2="0.6068433" y1="1.1551802" y2="-0.09665582"><stop offset="0" stop-color="#a2abb9"></stop><stop offset="1" stop-color="#e7eaf0"></stop></linearGradient><linearGradient gradientUnits="objectBoundingBox" id="linearGradient-8" node-id="26" spreadMethod="pad" x1="0.9354955" x2="0.29550323" y1="0.83448935" y2="0.37838316"><stop offset="0" stop-color="#a2abb9"></stop><stop offset="1" stop-color="#e7eaf0"></stop></linearGradient><linearGradient gradientUnits="objectBoundingBox" id="linearGradient-9" node-id="29" spreadMethod="pad" x1="1.2505317" x2="-0.1864433" y1="1.1441041" y2="-0.21639141"><stop offset="0" stop-color="#a2abb9"></stop><stop offset="1" stop-color="#e7eaf0"></stop></linearGradient><linearGradient gradientUnits="objectBoundingBox" id="linearGradient-10" node-id="32" spreadMethod="pad" x1="0.8885142" x2="0.38328245" y1="1.232008" y2="0"><stop offset="0" stop-color="#a2abb9"></stop><stop offset="1" stop-color="#e7eaf0"></stop></linearGradient><linearGradient gradientUnits="objectBoundingBox" id="linearGradient-11" node-id="35" spreadMethod="pad" x1="1.0957404" x2="0.5" y1="1.2848952" y2="-0.0000000000000071054274"><stop offset="0" stop-color="#a2abb9"></stop><stop offset="1" stop-color="#e7eaf0"></stop></linearGradient><linearGradient gradientUnits="objectBoundingBox" id="linearGradient-12" node-id="38" spreadMethod="pad" x1="0.5019097" x2="0.5" y1="1.6131887" y2="0.14801702"><stop offset="0" stop-color="#a2abb9"></stop><stop offset="1" stop-color="#e7eaf0"></stop></linearGradient><linearGradient gradientUnits="objectBoundingBox" id="linearGradient-13" node-id="41" spreadMethod="pad" x1="0.5028964" x2="0.5" y1="1.6131887" y2="0.14801702"><stop offset="0" stop-color="#a2abb9"></stop><stop offset="1" stop-color="#e7eaf0"></stop></linearGradient></defs><g node-id="144"><path d="M 297.37 77.00 C 348.40 77.00 395.46 93.76 433.17 122.00 L 418.00 122.00 C 410.82 122.00 405.00 127.82 405.00 135.00 L 405.00 135.00 L 405.00 136.00 C 405.00 143.18 410.82 149.00 418.00 149.00 L 418.00 149.00 L 463.18 149.00 C 471.75 158.24 479.53 168.19 486.43 178.76 L 507.88 178.76 C 515.61 178.76 521.88 185.03 521.88 192.76 L 521.88 193.54 C 521.88 199.93 517.60 205.32 511.75 207.00 L 492.00 207.00 C 483.16 207.00 476.00 214.16 476.00 223.00 L 476.00 223.00 L 476.00 228.00 C 476.00 236.84 483.16 244.00 492.00 244.00 L 492.00 244.00 L 559.90 244.00 C 566.85 245.74 572.00 252.03 572.00 259.52 L 572.00 260.41 C 572.00 269.25 564.84 276.41 556.00 276.41 L 520.82 276.41 C 521.52 283.52 521.88 290.72 521.88 298.00 C 521.88 420.05 421.36 519.00 297.37 519.00 C 198.19 519.00 114.03 455.70 84.32 367.90 L 75.89 367.90 C 72.49 367.90 69.72 365.14 69.72 361.73 C 69.72 359.13 71.33 356.91 73.61 356.00 L 84.00 356.00 C 91.18 356.00 97.00 350.18 97.00 343.00 L 97.00 343.00 L 97.00 342.00 C 97.00 334.82 91.18 329.00 84.00 329.00 L 84.00 329.00 L 75.05 329.00 C 75.04 328.95 75.03 328.89 75.03 328.84 L 52.85 328.84 C 47.18 328.84 42.58 324.24 42.58 318.56 C 42.58 312.88 47.18 308.28 52.85 308.28 L 73.10 308.28 C 72.94 304.87 72.86 301.45 72.86 298.00 C 72.86 265.37 80.04 234.39 92.94 206.51 L 57.00 206.52 C 41.54 206.52 29.00 193.98 29.00 178.52 L 29.00 176.95 C 29.00 162.03 40.67 149.83 55.39 149.00 L 182.00 149.00 C 187.52 149.00 192.00 144.52 192.00 139.00 C 192.00 133.48 187.52 129.00 182.00 129.00 L 182.00 129.00 L 152.69 129.00 C 152.94 128.80 153.18 128.59 153.42 128.39 L 138.85 128.40 C 128.35 128.40 119.85 119.89 119.85 109.40 L 119.85 108.33 C 119.85 97.84 128.35 89.33 138.85 89.33 L 223.23 89.33 C 246.44 81.34 271.39 77.00 297.37 77.00 Z" fill="#f3f3fa" fill-opacity="0.6015942" fill-rule="evenodd" group-id="1" id="背景" node-id="45" stroke="none" target-height="442" target-width="543" target-x="29" target-y="77"></path></g><path d="M 181.78 213.97 L 174.47 213.97 C 174.47 199.33 162.60 187.47 147.97 187.47 C 133.33 187.47 121.47 199.33 121.47 213.97 L 116.13 213.97 C 109.39 213.97 103.94 219.90 103.94 227.22 C 103.94 234.54 109.40 240.47 116.13 240.47 L 181.78 240.47 C 188.51 240.47 193.97 234.54 193.97 227.22 C 193.97 219.90 188.51 213.97 181.78 213.97 Z" fill="url(#linearGradient-1)" fill-rule="nonzero" id="路径" node-id="46" stroke="none" target-height="53" target-width="90.034676" target-x="103.93691" target-y="187.4683"></path><path d="M 368.90 138.63 L 363.66 138.63 C 363.66 128.13 355.15 119.63 344.66 119.63 C 334.17 119.63 325.66 128.13 325.66 138.63 L 321.83 138.63 C 317.00 138.63 313.09 142.88 313.09 148.13 C 313.09 153.37 317.00 157.63 321.83 157.63 L 368.90 157.63 C 373.73 157.63 377.64 153.37 377.64 148.13 C 377.64 142.88 373.73 138.63 368.90 138.63 Z" fill="url(#linearGradient-2)" fill-rule="nonzero" id="路径" node-id="47" stroke="none" target-height="38" target-width="64.5549" target-x="313.08844" target-y="119.627625"></path><path d="M 284.50 415.00 C 345.88 415.00 401.15 420.01 439.79 428.00 C 477.58 428.26 508.00 439.57 508.00 453.50 C 508.00 464.54 488.89 473.94 462.15 477.49 C 455.77 479.37 448.58 481.15 440.69 482.81 C 440.90 483.86 441.00 484.93 441.00 486.00 C 441.00 510.30 388.17 530.00 323.00 530.00 C 264.37 530.00 215.72 514.05 206.55 493.16 C 128.32 487.22 73.00 472.60 73.00 455.50 C 73.00 433.13 167.69 415.00 284.50 415.00 Z" fill="#e7eaf0" fill-rule="evenodd" id="形状结合" node-id="48" stroke="none" target-height="115" target-width="435" target-x="73" target-y="415"></path><path d="M 463.31 400.57 L 463.62 401.62 L 463.88 402.61 L 464.00 403.41 L 463.76 405.05 L 463.06 406.47 L 461.98 407.62 L 460.62 408.41 L 459.44 408.47 L 458.31 408.53 L 457.12 408.53 L 447.38 408.66 L 447.38 418.97 L 447.47 423.57 L 447.69 427.74 L 448.00 432.00 L 439.00 432.00 L 439.19 429.59 L 439.31 425.73 L 439.38 419.22 L 439.38 409.77 L 438.24 410.47 L 437.00 410.70 L 435.99 410.57 L 435.16 410.20 L 434.45 409.62 L 433.88 408.84 L 426.81 408.47 L 424.92 407.71 L 423.38 406.40 L 422.61 405.29 L 422.16 404.06 L 422.00 402.67 L 422.06 401.99 L 422.25 401.37 L 423.81 397.79 L 424.07 396.47 L 424.59 395.26 L 425.34 394.16 L 426.25 393.22 L 436.06 375.25 L 436.12 375.25 L 437.44 373.22 L 438.94 371.54 L 440.10 370.70 L 441.48 370.18 L 443.12 370.00 L 445.27 370.30 L 447.16 371.17 L 448.71 372.53 L 449.81 374.26 L 457.69 389.51 L 459.02 390.13 L 460.18 390.99 L 461.19 392.11 L 461.95 393.40 L 462.41 394.81 L 462.56 396.37 L 462.25 398.47 L 463.31 400.57 Z" fill="url(#linearGradient-3)" fill-rule="nonzero" group-id="2" id="路径" node-id="50" stroke="none" target-height="62" target-width="42" target-x="422" target-y="370"></path><path d="M 503.31 420.57 L 503.62 421.62 L 503.88 422.61 L 504.00 423.41 L 503.76 425.05 L 503.06 426.47 L 501.98 427.62 L 500.62 428.41 L 499.44 428.47 L 498.31 428.53 L 497.12 428.53 L 487.38 428.66 L 487.38 438.97 L 487.47 443.57 L 487.69 447.74 L 488.00 452.00 L 479.00 452.00 L 479.19 449.59 L 479.31 445.73 L 479.38 439.22 L 479.38 429.77 L 478.24 430.47 L 477.00 430.70 L 475.99 430.57 L 475.16 430.20 L 474.45 429.62 L 473.88 428.84 L 466.81 428.47 L 464.92 427.71 L 463.38 426.40 L 462.61 425.29 L 462.16 424.06 L 462.00 422.67 L 462.06 421.99 L 462.25 421.37 L 463.81 417.79 L 464.07 416.47 L 464.59 415.26 L 465.34 414.16 L 466.25 413.22 L 476.06 395.25 L 476.12 395.25 L 477.44 393.22 L 478.94 391.54 L 480.10 390.70 L 481.48 390.18 L 483.12 390.00 L 485.27 390.30 L 487.16 391.17 L 488.71 392.53 L 489.81 394.26 L 497.69 409.51 L 499.02 410.13 L 500.18 410.99 L 501.19 412.11 L 501.95 413.40 L 502.41 414.81 L 502.56 416.37 L 502.25 418.47 L 503.31 420.57 Z" fill="url(#linearGradient-3)" fill-rule="nonzero" group-id="2" id="路径" node-id="51" stroke="none" target-height="62" target-width="42" target-x="462" target-y="390"></path><path d="M 150.03 413.39 L 150.47 414.88 L 150.82 416.28 L 151.00 417.42 L 150.85 419.01 L 150.41 420.45 L 149.68 421.76 L 148.17 423.39 L 146.26 424.52 L 144.59 424.61 L 143.01 424.69 L 141.34 424.69 L 127.65 424.87 L 127.65 439.51 L 127.78 446.04 L 128.08 451.95 L 128.52 458.00 L 115.88 458.00 L 116.14 454.58 L 116.32 449.10 L 116.41 439.86 L 116.41 426.45 L 115.35 427.19 L 114.25 427.62 L 113.07 427.76 L 111.66 427.58 L 110.48 427.06 L 109.49 426.24 L 108.68 425.13 L 98.76 424.61 L 96.93 423.96 L 95.33 422.99 L 93.93 421.67 L 92.86 420.09 L 92.22 418.34 L 92.00 416.37 L 92.09 415.40 L 92.35 414.53 L 94.55 409.44 L 94.91 407.58 L 95.64 405.85 L 96.69 404.29 L 97.97 402.96 L 111.75 377.45 L 111.84 377.45 L 113.69 374.57 L 115.79 372.19 L 117.43 370.99 L 119.36 370.26 L 121.68 370.00 L 123.73 370.19 L 125.61 370.74 L 127.34 371.67 L 128.87 372.90 L 130.11 374.35 L 131.07 376.05 L 142.13 397.70 L 144.00 398.57 L 145.63 399.79 L 147.05 401.38 L 148.12 403.21 L 148.76 405.21 L 148.98 407.43 L 148.88 408.84 L 148.54 410.41 L 150.03 413.39 Z" fill="url(#linearGradient-4)" fill-rule="nonzero" group-id="2" id="路径" node-id="52" stroke="none" target-height="88" target-width="59" target-x="92" target-y="370"></path><path d="M 183.00 436.04 L 375.19 534.00 L 516.00 454.11 L 335.23 398.00 Z" fill="url(#linearGradient-5)" fill-opacity="0.5" fill-rule="nonzero" group-id="3,4" id="Path-10" node-id="54" stroke="none" target-height="136" target-width="333" target-x="183" target-y="398"></path><path d="M 180.00 292.05 L 180.00 424.21 L 180.16 425.90 L 180.58 427.45 L 181.26 428.88 L 182.71 430.75 L 184.59 432.20 L 186.02 432.89 L 187.57 433.31 L 189.26 433.47 L 292.86 438.00 L 300.19 433.47 L 316.94 366.46 L 293.72 315.76 L 327.00 282.00 L 189.19 282.79 L 186.73 283.14 L 184.55 284.08 L 182.69 285.53 L 181.25 287.40 L 180.33 289.58 L 180.00 292.05 Z" fill="url(#linearGradient-6)" fill-rule="nonzero" group-id="3" id="路径" node-id="55" stroke="none" target-height="156" target-width="147" target-x="180" target-y="282"></path><path d="M 180.00 298.08 L 180.00 428.72 L 180.16 430.41 L 180.58 431.97 L 181.26 433.40 L 182.70 435.28 L 184.57 436.73 L 186.00 437.42 L 187.54 437.84 L 189.22 438.00 L 292.41 438.00 L 310.00 367.17 L 285.05 314.52 L 310.00 288.00 L 189.15 288.79 L 186.70 289.14 L 184.53 290.08 L 182.68 291.54 L 181.25 293.41 L 180.33 295.60 L 180.00 298.08 Z" fill="url(#linearGradient-7)" fill-rule="nonzero" group-id="3" id="路径备份" node-id="56" stroke="none" target-height="150" target-width="130" target-x="180" target-y="288"></path><path d="M 302.99 397.19 L 309.00 372.40 L 273.14 395.47 L 269.13 397.87 L 258.77 388.49 L 245.26 375.56 L 227.96 358.32 L 226.32 357.05 L 224.43 356.28 L 222.41 356.00 L 220.38 356.21 L 218.46 356.91 L 216.76 358.11 L 180.00 409.16 L 180.00 427.95 L 180.26 430.45 L 181.06 432.80 L 181.90 434.22 L 183.00 435.45 L 184.37 436.52 L 185.93 437.29 L 187.81 437.80 L 190.10 438.00 L 292.94 438.00 L 302.99 397.19 Z" fill="url(#linearGradient-8)" fill-rule="nonzero" group-id="3" id="路径" node-id="57" stroke="none" target-height="81.998566" target-width="129" target-x="180" target-y="356.00143"></path><path d="M 378.23 296.00 L 432.04 309.81 L 434.30 310.71 L 436.15 312.09 L 437.61 313.87 L 438.57 315.95 L 438.99 318.21 L 438.80 320.62 L 402.65 454.71 L 402.07 456.50 L 401.21 458.05 L 400.07 459.38 L 398.70 460.47 L 397.18 461.28 L 395.50 461.80 L 393.75 462.00 L 391.98 461.85 L 390.15 461.34 L 312.17 440.13 L 351.32 367.49 L 341.12 316.58 L 378.23 296.00 Z" fill="url(#linearGradient-9)" fill-rule="nonzero" group-id="3" id="路径备份-2" node-id="58" stroke="none" target-height="166.00244" target-width="126.812195" target-x="312.1742" target-y="296"></path><path d="M 370.64 299.63 L 424.45 313.45 L 426.70 314.35 L 428.56 315.72 L 430.01 317.50 L 430.98 319.58 L 431.39 321.85 L 431.21 324.26 L 396.48 453.05 L 395.89 454.85 L 395.03 456.40 L 393.89 457.73 L 392.52 458.82 L 391.01 459.62 L 389.32 460.15 L 387.58 460.35 L 385.81 460.20 L 383.97 459.68 L 306.00 438.48 L 343.73 371.12 L 333.53 320.22 L 370.64 299.63 Z" fill="url(#linearGradient-10)" fill-rule="nonzero" group-id="3" id="路径" node-id="59" stroke="none" target-height="160.71442" target-width="125.394196" target-x="306" target-y="299.63495"></path><path d="M 399.46 442.38 L 361.34 369.36 L 360.14 367.89 L 358.73 366.86 L 357.07 366.21 L 355.31 366.00 L 353.58 366.24 L 351.82 366.97 L 343.73 371.12 L 306.08 438.50 L 366.77 455.22 L 381.21 458.97 L 385.24 459.63 L 388.51 459.66 L 391.17 459.20 L 392.98 458.43 L 394.37 457.32 L 395.40 455.83 L 396.10 453.89 L 399.46 442.38 Z" fill="url(#linearGradient-11)" fill-rule="nonzero" group-id="3" id="路径" node-id="60" stroke="none" target-height="93.66556" target-width="93.37744" target-x="306.08405" target-y="365.9966"></path><path d="M 403.10 346.69 L 402.81 349.77 L 402.04 352.59 L 400.79 355.21 L 399.12 357.58 L 397.10 359.59 L 394.73 361.26 L 392.12 362.51 L 389.29 363.28 L 386.21 363.57 L 383.12 363.28 L 380.30 362.51 L 377.68 361.26 L 375.31 359.59 L 373.30 357.58 L 371.62 355.21 L 370.37 352.59 L 369.60 349.77 L 369.31 346.69 L 369.60 343.61 L 370.37 340.79 L 371.62 338.17 L 373.30 335.80 L 375.31 333.79 L 377.68 332.11 L 380.30 330.87 L 383.12 330.10 L 386.21 329.81 L 389.29 330.10 L 392.12 330.87 L 394.73 332.11 L 397.10 333.79 L 399.12 335.80 L 400.79 338.17 L 402.04 340.79 L 402.81 343.61 L 403.10 346.69 Z" fill="#ffffff" fill-rule="nonzero" group-id="3" id="椭圆形" node-id="61" stroke="none" target-height="33.759888" target-width="33.786255" target-x="369.31415" target-y="329.8095"></path><path d="M 222.20 201.85 L 230.92 232.82 L 243.31 226.77 L 254.52 249.75 L 247.06 217.12 L 234.47 223.26 Z" fill="url(#linearGradient-12)" fill-rule="nonzero" group-id="3,5" id="路径-2" node-id="62" stroke="none" target-height="47.895813" target-width="32.31671" target-x="222.19943" target-y="201.85483"></path><path d="M 437.10 218.65 L 397.60 243.89 L 415.49 261.07 L 384.54 284.89 L 410.86 272.41 L 424.25 265.73 L 429.81 262.65 L 431.40 261.51 L 431.54 261.18 L 428.77 258.42 L 412.97 244.18 L 437.10 218.65 Z" fill="url(#linearGradient-13)" fill-rule="nonzero" group-id="3,6" id="路径-3" node-id="63" stroke="none" target-height="66.23782" target-width="52.55945" target-x="384.5423" target-y="218.6503"></path></svg>