<?xml version="1.0" standalone="no"?><!DOCTYPE svg PUBLIC "-//W3C//DTD SVG 1.1//EN" "http://www.w3.org/Graphics/SVG/1.1/DTD/svg11.dtd"><svg t="1711608958427" class="icon" viewBox="0 0 1024 1024" version="1.1" xmlns="http://www.w3.org/2000/svg" p-id="5284" xmlns:xlink="http://www.w3.org/1999/xlink" width="200" height="200"><path d="M888.93 354.58l-0.07-4.51c-2.44-82.73-70.21-148.53-152.98-148.53H511.76a100.57 100.57 0 0 0-76.26-34.98H288.12c-84.52 0-153.05 68.52-153.05 153.05v384.8c0 84.53 68.52 153.05 153.05 153.05h447.77c84.53 0 153.05-68.52 153.05-153.05V372.86c0-1.22-0.07-2.41-0.21-3.59h0.21v-14.69z m-153.05-91.83l3.78 0.07c44.48 1.83 81.24 35.3 87.23 79.41l-230.41 0.02-2.92-0.11a39.347 39.347 0 0 1-34.18-26.17l-18.79-53.23h195.29z m91.83 441.65c0 50.72-41.1 91.83-91.83 91.83H288.12c-50.72 0-91.83-41.1-91.83-91.83V319.6c0-50.72 41.11-91.83 91.83-91.83H435.5c16.69 0 31.56 10.52 37.12 26.25l29.03 82.33 1.5 3.97c15.3 38.13 52.25 63.12 93.33 63.12h231.23V704.4z" p-id="5285" fill="#2c2c2c"></path><path d="M619.79 570.77c13.02 0.01 23.57 10.57 23.57 23.59-0.01 12.26-9.41 22.47-21.63 23.49l-1.94 0.08H404.21c-13.02-0.01-23.57-10.57-23.57-23.59 0.01-12.26 9.41-22.47 21.63-23.49l1.94-0.08h215.58z" p-id="5286" fill="#2c2c2c"></path><path d="M488.42 486.56c0.01-13.02 10.57-23.57 23.59-23.57 12.26 0.01 22.47 9.41 23.49 21.63l0.08 1.94v215.58c-0.01 13.02-10.57 23.57-23.59 23.57-12.26-0.01-22.47-9.41-23.49-21.63l-0.08-1.94V486.56z" p-id="5287" fill="#2c2c2c"></path></svg>