<?xml version="1.0" standalone="no"?><!DOCTYPE svg PUBLIC "-//W3C//DTD SVG 1.1//EN" "http://www.w3.org/Graphics/SVG/1.1/DTD/svg11.dtd"><svg t="1711609067255" class="icon" viewBox="0 0 1024 1024" version="1.1" xmlns="http://www.w3.org/2000/svg" p-id="9615" xmlns:xlink="http://www.w3.org/1999/xlink" width="200" height="200"><path d="M737.7 447.9c-51.9 0-95.9-44-95.9-95.9 0-52 44-96 95.9-96 52 0 96 44 96 96-0.1 51.9-44 95.9-96 95.9z m168-319.8c32 0 55.9 23.9 55.9 56v655.6c0 32-23.9 55.9-55.9 55.9H122c-32.1 0-56-24-56-55.9V184c0-32.1 23.9-56 56-56l783.7 0.1zM699.6 523.9l198 211.8V215.9c0-13.9-12-23.9-26.1-23.9H155.9c-14 0-24 10.1-26 23.9v519.8L381.8 432c8-8.1 20-16 34-16 13.9 0 25.9 4 34 14l108 118 8 7.8c6 4 13.9 8 22 8 8 0 16-4 23.9-10l36.1-32c7.9-6 15.9-10 25.9-10 10 0.1 20 4.1 25.9 12.1z" p-id="9616" fill="#2c2c2c"></path></svg>